 <svg  version="1.0" xmlns="http://www.w3.org/2000/svg"  width="118.000000pt" height="115.000000pt" viewBox="0 0 118.000000 115.000000"  preserveAspectRatio="xMidYMid meet">  <g transform="translate(0.000000,115.000000) scale(0.050000,-0.050000)" fill="#ffffff" stroke="none"> <path d="M1172 2162 c-18 -161 1 -194 122 -206 109 -11 287 -93 376 -173 68 -61 210 -230 210 -250 0 -7 -162 -13 -360 -13 l-360 0 0 -160 0 -160 325 0 c179 0 426 -6 550 -13 l225 -13 0 75 c0 495 -430 938 -992 1021 l-83 13 -13 -121z"/> <path d="M710 2202 c-121 -51 -153 -188 -64 -277 108 -108 301 -34 301 115 0 109 -138 203 -237 162z"/> <path d="M384 1934 c-522 -559 -229 -1604 501 -1785 l55 -13 0 150 0 150 -90 44 c-446 216 -582 808 -278 1213 l48 64 -79 100 c-101 128 -107 130 -157 77z"/> <path d="M1913 957 c-19 -59 -37 -122 -39 -141 -1 -19 -6 -31 -10 -26 -5 4 -37 -30 -72 -76 -92 -121 -245 -230 -377 -270 l-115 -34 0 -145 c0 -171 6 -174 222 -97 331 116 577 376 681 718 50 162 51 161 -119 170 l-135 8 -36 -107z"/> </g> </svg> 